<svg xmlns="http://www.w3.org/2000/svg" viewBox="0 0 59.21 29.9"><defs><style>.cls-1{fill:#fffbe3;}</style></defs><title>Asset 10</title><g id="Layer_2" data-name="Layer 2"><g id="Layer_2-2" data-name="Layer 2"><path class="cls-1" d="M29.12,29.9c-3.23,0-4.83-4-6.52-8.34s-3.42-8.66-6.48-8.66c-1.47,0-2.75,1.12-4.22,2.42a17.79,17.79,0,0,1-3.38,2.52C5.26,19.56.21,18.92,0,18.9L.25,17s4.66.59,7.38-.85a16.38,16.38,0,0,0,3-2.27C12.26,12.47,13.93,11,16.12,11c4.36,0,6.43,5.24,8.25,9.87,1.38,3.5,2.81,7.13,4.75,7.13s3.52-7.08,4.73-12.26C35.75,7.65,37.54,0,41.79,0,45.1,0,46,3.74,46.9,7.35c.57,2.34,1.17,4.76,2.33,6.39C52,17.58,59,17,59,17l.17,1.9c-.33,0-8.12.68-11.52-4.05-1.38-1.92-2-4.53-2.64-7-.9-3.67-1.57-5.9-3.26-5.9-2.74,0-4.59,7.91-6.08,14.27C33.92,23.85,32.5,29.9,29.12,29.9Z"/></g></g></svg>