<svg xmlns="http://www.w3.org/2000/svg" viewBox="0 0 45.79 36.02"><defs><style>.cls-1{fill:#fffbe3;}</style></defs><title>Asset 9</title><g id="Layer_2" data-name="Layer 2"><g id="Layer_2-2" data-name="Layer 2"><path class="cls-1" d="M33.89,18a16.76,16.76,0,0,0-.36-3.39l12.25-5-.68-1.66-12,4.92a15,15,0,0,0-1-2.32L41.89,1.3,40.66,0,31.14,9a10.21,10.21,0,0,0-8.25-4.64A10.21,10.21,0,0,0,14.65,9L5.12,0,3.89,1.3l9.79,9.24a15,15,0,0,0-1,2.32L.68,7.94,0,9.6l12.25,5a16.33,16.33,0,0,0,0,6.78L0,26.41l.68,1.66,12-4.92a15,15,0,0,0,1,2.32L3.89,34.71,5.12,36l9.52-9a10.21,10.21,0,0,0,8.25,4.64A10.21,10.21,0,0,0,31.14,27l9.52,9,1.23-1.3L32.1,25.47a15,15,0,0,0,1-2.32l12,4.92.68-1.66-12.25-5A16.75,16.75,0,0,0,33.89,18Z"/></g></g></svg>