<svg
    xmlns="http://www.w3.org/2000/svg"
    width="0"
    height="0"
    viewBox="0 0 1089 1089"
    >
  <defs>
    <clipPath id="clip">
      <path
          d="m 1084.5,544.5 c 0,0 -45.59,-98.34 -116.22,-84.3 70.63,-14 75.11,-122.35 75.11,-122.35 0,0 -79.75,-73.41 -139.63,-33.4 59.88,-40 22.58,-141.79 22.58,-141.79 0,0 -101.78,-37.3 -141.79,22.58 40,-59.88 -33.4,-139.64 -33.4,-139.64 0,0 -108.31,4.49 -122.35,75.12 C 642.84,50.09 544.5,4.5 544.5,4.5 c 0,0 -98.34,45.59 -84.3,116.22 C 446.2,50.09 337.85,45.6 337.85,45.6 c 0,0 -73.41,79.76 -33.4,139.64 -40,-59.88 -141.79,-22.58 -141.79,-22.58 0,0 -37.3,101.78 22.58,141.79 -59.88,-40 -139.63,33.4 -139.63,33.4 0,0 4.48,108.31 75.11,122.35 C 50.09,446.16 4.5,544.5 4.5,544.5 c 0,0 45.59,98.34 116.22,84.3 -70.63,14 -75.11,122.35 -75.11,122.35 0,0 79.75,73.41 139.63,33.4 -59.88,40 -22.58,141.79 -22.58,141.79 0,0 101.78,37.3 141.79,-22.58 -40,59.88 33.4,139.63 33.4,139.63 0,0 108.31,-4.48 122.35,-75.11 -14,70.63 84.3,116.22 84.3,116.22 0,0 98.34,-45.59 84.3,-116.22 14,70.63 122.35,75.11 122.35,75.11 0,0 73.41,-79.75 33.4,-139.63 40,59.88 141.79,22.58 141.79,22.58 0,0 37.3,-101.78 -22.58,-141.79 59.88,40 139.63,-33.4 139.63,-33.4 0,0 -4.48,-108.31 -75.11,-122.35 70.63,14.04 116.22,-84.3 116.22,-84.3 z">
      </path>
    </clipPath>
  </defs>
      <path
          d="m 1084.5,544.5 c 0,0 -45.59,-98.34 -116.22,-84.3 70.63,-14 75.11,-122.35 75.11,-122.35 0,0 -79.75,-73.41 -139.63,-33.4 59.88,-40 22.58,-141.79 22.58,-141.79 0,0 -101.78,-37.3 -141.79,22.58 40,-59.88 -33.4,-139.64 -33.4,-139.64 0,0 -108.31,4.49 -122.35,75.12 C 642.84,50.09 544.5,4.5 544.5,4.5 c 0,0 -98.34,45.59 -84.3,116.22 C 446.2,50.09 337.85,45.6 337.85,45.6 c 0,0 -73.41,79.76 -33.4,139.64 -40,-59.88 -141.79,-22.58 -141.79,-22.58 0,0 -37.3,101.78 22.58,141.79 -59.88,-40 -139.63,33.4 -139.63,33.4 0,0 4.48,108.31 75.11,122.35 C 50.09,446.16 4.5,544.5 4.5,544.5 c 0,0 45.59,98.34 116.22,84.3 -70.63,14 -75.11,122.35 -75.11,122.35 0,0 79.75,73.41 139.63,33.4 -59.88,40 -22.58,141.79 -22.58,141.79 0,0 101.78,37.3 141.79,-22.58 -40,59.88 33.4,139.63 33.4,139.63 0,0 108.31,-4.48 122.35,-75.11 -14,70.63 84.3,116.22 84.3,116.22 0,0 98.34,-45.59 84.3,-116.22 14,70.63 122.35,75.11 122.35,75.11 0,0 73.41,-79.75 33.4,-139.63 40,59.88 141.79,22.58 141.79,22.58 0,0 37.3,-101.78 -22.58,-141.79 59.88,40 139.63,-33.4 139.63,-33.4 0,0 -4.48,-108.31 -75.11,-122.35 70.63,14.04 116.22,-84.3 116.22,-84.3 z">
      </path>
</svg>
