<?xml version="1.0" encoding="UTF-8" standalone="no"?>
<svg
   xmlns:dc="http://purl.org/dc/elements/1.1/"
   xmlns:cc="http://creativecommons.org/ns#"
   xmlns:rdf="http://www.w3.org/1999/02/22-rdf-syntax-ns#"
   xmlns:svg="http://www.w3.org/2000/svg"
   xmlns="http://www.w3.org/2000/svg"
   xmlns:sodipodi="http://sodipodi.sourceforge.net/DTD/sodipodi-0.dtd"
   xmlns:inkscape="http://www.inkscape.org/namespaces/inkscape"
   width="1"
   height="1"
   viewBox="0 0 1 1"
   id="svg3377"
   version="1.1"
   inkscape:version="0.91 r13725"
   sodipodi:docname="table-clip.svg">
  <metadata
     id="metadata3388">
    <rdf:RDF>
      <cc:Work
         rdf:about="">
        <dc:format>image/svg+xml</dc:format>
        <dc:type
           rdf:resource="http://purl.org/dc/dcmitype/StillImage" />
        <dc:title></dc:title>
      </cc:Work>
    </rdf:RDF>
  </metadata>
  <sodipodi:namedview
     pagecolor="#ffffff"
     bordercolor="#666666"
     borderopacity="1"
     objecttolerance="10"
     gridtolerance="10"
     guidetolerance="10"
     inkscape:pageopacity="0"
     inkscape:pageshadow="2"
     inkscape:window-width="1370"
     inkscape:window-height="779"
     id="namedview3386"
     showgrid="false"
     showborder="false"
     inkscape:zoom="221.91368"
     inkscape:cx="1.9511471"
     inkscape:cy="-0.46982988"
     inkscape:window-x="0"
     inkscape:window-y="25"
     inkscape:window-maximized="0"
     inkscape:current-layer="svg3377" />
  <defs
     id="defs3379">
    <clipPath
       id="clip">
      <path
         d="m 1084.5,544.5 c 0,0 -45.59,-98.34 -116.22,-84.3 70.63,-14 75.11,-122.35 75.11,-122.35 0,0 -79.75,-73.41 -139.63,-33.4 59.88,-40 22.58,-141.79 22.58,-141.79 0,0 -101.78,-37.3 -141.79,22.58 40,-59.88 -33.4,-139.64 -33.4,-139.64 0,0 -108.31,4.49 -122.35,75.12 C 642.84,50.09 544.5,4.5 544.5,4.5 c 0,0 -98.34,45.59 -84.3,116.22 C 446.2,50.09 337.85,45.6 337.85,45.6 c 0,0 -73.41,79.76 -33.4,139.64 -40,-59.88 -141.79,-22.58 -141.79,-22.58 0,0 -37.3,101.78 22.58,141.79 -59.88,-40 -139.63,33.4 -139.63,33.4 0,0 4.48,108.31 75.11,122.35 C 50.09,446.16 4.5,544.5 4.5,544.5 c 0,0 45.59,98.34 116.22,84.3 -70.63,14 -75.11,122.35 -75.11,122.35 0,0 79.75,73.41 139.63,33.4 -59.88,40 -22.58,141.79 -22.58,141.79 0,0 101.78,37.3 141.79,-22.58 -40,59.88 33.4,139.63 33.4,139.63 0,0 108.31,-4.48 122.35,-75.11 -14,70.63 84.3,116.22 84.3,116.22 0,0 98.34,-45.59 84.3,-116.22 14,70.63 122.35,75.11 122.35,75.11 0,0 73.41,-79.75 33.4,-139.63 40,59.88 141.79,22.58 141.79,22.58 0,0 37.3,-101.78 -22.58,-141.79 59.88,40 139.63,-33.4 139.63,-33.4 0,0 -4.48,-108.31 -75.11,-122.35 70.63,14.04 116.22,-84.3 116.22,-84.3 z"
         id="path3382"
         inkscape:connector-curvature="0" />
    </clipPath>
  </defs>
  <path
     d="m 1,0.5 c 0,0 -0.042213,-0.0910556 -0.10761111,-0.0780556 0.0653982,-0.012963 0.0695463,-0.11328703 0.0695463,-0.11328703 0,0 -0.0738426,-0.0679722 -0.12928704,-0.0309259 0.0554444,-0.037037 0.0209074,-0.13128704 0.0209074,-0.13128704 0,0 -0.0942408,-0.034537 -0.13128704,0.0209074 0.037037,-0.0554444 -0.0309259,-0.12929629 -0.0309259,-0.12929629 0,0 -0.10028703,0.0041574 -0.11328703,0.06955555 C 0.59105556,0.04221296 0.5,0 0.5,0 0.5,0 0.4089444,0.04221296 0.4219444,0.10761111 0.4089814,0.04221296 0.30865737,0.03805556 0.30865737,0.03805556 c 0,0 -0.0679722,0.07385185 -0.0309259,0.12929629 -0.037037,-0.0554444 -0.13128704,-0.0209074 -0.13128704,-0.0209074 0,0 -0.034537,0.0942408 0.0209074,0.13128704 -0.0554444,-0.037037 -0.12928704,0.0309259 -0.12928704,0.0309259 0,0 0.0041482,0.10028703 0.0695463,0.11328703 C 0.04221296,0.40894444 0,0.5 0,0.5 c 0,0 0.04221296,0.0910556 0.10761111,0.0780556 -0.06539815,0.012963 -0.0695463,0.11328703 -0.0695463,0.11328703 0,0 0.0738426,0.0679722 0.12928704,0.0309259 -0.0554444,0.037037 -0.0209074,0.13128704 -0.0209074,0.13128704 0,0 0.0942408,0.034537 0.13128704,-0.0209074 -0.037037,0.0554444 0.0309259,0.12928704 0.0309259,0.12928704 0,0 0.10028703,-0.004148 0.11328703,-0.0695463 C 0.40898148,0.95778704 0.5,1 0.5,1 c 0,0 0.0910556,-0.042213 0.0780556,-0.10761111 0.012963,0.0653982 0.11328703,0.0695463 0.11328703,0.0695463 0,0 0.0679722,-0.0738426 0.0309259,-0.12928704 0.037037,0.0554444 0.13128704,0.0209074 0.13128704,0.0209074 0,0 0.034537,-0.0942408 -0.0209074,-0.13128704 0.0554444,0.037037 0.12928704,-0.0309259 0.12928704,-0.0309259 0,0 -0.004148,-0.10028703 -0.0695463,-0.11328703 C 0.95778704,0.59105556 1,0.5 1,0.5 Z"
     id="path3384"
     inkscape:connector-curvature="0" />
</svg>
