<?xml version="1.0" encoding="UTF-8" standalone="no"?>
<svg
    xmlns:dc="http://purl.org/dc/elements/1.1/"
    xmlns:cc="http://creativecommons.org/ns#"
    xmlns:rdf="http://www.w3.org/1999/02/22-rdf-syntax-ns#"
    xmlns:svg="http://www.w3.org/2000/svg"
    xmlns="http://www.w3.org/2000/svg"
    xmlns:sodipodi="http://sodipodi.sourceforge.net/DTD/sodipodi-0.dtd"
    xmlns:inkscape="http://www.inkscape.org/namespaces/inkscape"
    width="1"
    height="1"
    viewBox="0 0 1 1"
    id="svg3377"
    version="1.1"
    inkscape:version="0.91 r13725"
    sodipodi:docname="table-clip.svg">
  />
  <defs
      id="defs3379">
    <clipPath
        id="clip">

      <path
          d="m 1,0.5 c 0,0 -0.042213,-0.0910556 -0.10761111,-0.0780556 0.0653982,-0.012963 0.0695463,-0.11328703 0.0695463,-0.11328703 0,0 -0.0738426,-0.0679722 -0.12928704,-0.0309259 0.0554444,-0.037037 0.0209074,-0.13128704 0.0209074,-0.13128704 0,0 -0.0942408,-0.034537 -0.13128704,0.0209074 0.037037,-0.0554444 -0.0309259,-0.12929629 -0.0309259,-0.12929629 0,0 -0.10028703,0.0041574 -0.11328703,0.06955555 C 0.59105556,0.04221296 0.5,0 0.5,0 0.5,0 0.4089444,0.04221296 0.4219444,0.10761111 0.4089814,0.04221296 0.30865737,0.03805556 0.30865737,0.03805556 c 0,0 -0.0679722,0.07385185 -0.0309259,0.12929629 -0.037037,-0.0554444 -0.13128704,-0.0209074 -0.13128704,-0.0209074 0,0 -0.034537,0.0942408 0.0209074,0.13128704 -0.0554444,-0.037037 -0.12928704,0.0309259 -0.12928704,0.0309259 0,0 0.0041482,0.10028703 0.0695463,0.11328703 C 0.04221296,0.40894444 0,0.5 0,0.5 c 0,0 0.04221296,0.0910556 0.10761111,0.0780556 -0.06539815,0.012963 -0.0695463,0.11328703 -0.0695463,0.11328703 0,0 0.0738426,0.0679722 0.12928704,0.0309259 -0.0554444,0.037037 -0.0209074,0.13128704 -0.0209074,0.13128704 0,0 0.0942408,0.034537 0.13128704,-0.0209074 -0.037037,0.0554444 0.0309259,0.12928704 0.0309259,0.12928704 0,0 0.10028703,-0.004148 0.11328703,-0.0695463 C 0.40898148,0.95778704 0.5,1 0.5,1 c 0,0 0.0910556,-0.042213 0.0780556,-0.10761111 0.012963,0.0653982 0.11328703,0.0695463 0.11328703,0.0695463 0,0 0.0679722,-0.0738426 0.0309259,-0.12928704 0.037037,0.0554444 0.13128704,0.0209074 0.13128704,0.0209074 0,0 0.034537,-0.0942408 -0.0209074,-0.13128704 0.0554444,0.037037 0.12928704,-0.0309259 0.12928704,-0.0309259 0,0 -0.004148,-0.10028703 -0.0695463,-0.11328703 C 0.95778704,0.59105556 1,0.5 1,0.5 Z"
          />
    </clipPath>
  </defs>
</svg>
